<svg width="20" height="18" viewBox="0 0 20 18" fill="none" xmlns="http://www.w3.org/2000/svg">
<path fill-rule="evenodd" clip-rule="evenodd" d="M5.17 2L7 0H13L14.83 2H18C19.1 2 20 2.9 20 4V16C20 17.1 19.1 18 18 18H2C0.9 18 0 17.1 0 16V4C0 2.9 0.9 2 2 2H5.17ZM5 10C5 12.76 7.24 15 10 15C12.76 15 15 12.76 15 10C15 7.24 12.76 5 10 5C7.24 5 5 7.24 5 10ZM13.2 10C13.2 11.7674 11.7674 13.2 10 13.2C8.23274 13.2 6.80005 11.7674 6.80005 10C6.80005 8.23274 8.23274 6.80005 10 6.80005C11.7674 6.80005 13.2 8.23274 13.2 10Z" fill="white"/>
</svg>
