<svg width="5" height="12" viewBox="0 0 5 12" fill="none" xmlns="http://www.w3.org/2000/svg">
<path d="M2.5 5.47344C1.73417 5.47344 1.11111 4.85661 1.11111 4.09844C1.11111 3.34026 1.73417 2.72344 2.5 2.72344C3.26583 2.72344 3.88889 3.34026 3.88889 4.09844C3.88889 4.40218 4.1376 4.64844 4.44444 4.64844C4.75129 4.64844 5 4.40218 5 4.09844C5 2.92278 4.16743 1.93666 3.05556 1.68579V1.07344C3.05556 0.7697 2.80684 0.523438 2.5 0.523438C2.19316 0.523438 1.94444 0.7697 1.94444 1.07344V1.68579C0.832569 1.93666 0 2.92278 0 4.09844C0 5.46316 1.12149 6.57344 2.5 6.57344C3.26583 6.57344 3.88889 7.19026 3.88889 7.94844C3.88889 8.70661 3.26583 9.32344 2.5 9.32344C1.73417 9.32344 1.11111 8.70661 1.11111 7.94844C1.11111 7.6447 0.862396 7.39844 0.555556 7.39844C0.248715 7.39844 0 7.6447 0 7.94844C0 9.1241 0.832569 10.1102 1.94444 10.3611V10.9734C1.94444 11.2772 2.19316 11.5234 2.5 11.5234C2.80684 11.5234 3.05556 11.2772 3.05556 10.9734V10.3611C4.16743 10.1102 5 9.1241 5 7.94844C5 6.58372 3.87851 5.47344 2.5 5.47344Z" fill="#1C1C1C"/>
</svg>
