<svg width="10" height="12" viewBox="0 0 10 12" fill="none" xmlns="http://www.w3.org/2000/svg">
<path d="M0.839912 6.72067L4.37638 10.9898C4.68582 11.3456 5.04684 11.5234 5.45943 11.5234C5.82781 11.5234 6.14462 11.4123 6.40985 11.1899L9.48216 8.58841C9.77687 8.32159 9.94632 7.98806 9.99053 7.58783C10.0347 7.21725 9.92422 6.85408 9.65898 6.49831L6.12251 2.22918C5.7394 1.72519 5.2384 1.40649 4.61951 1.27308L1.54721 0.561555C1.2525 0.472615 0.972529 0.53932 0.707294 0.76167L0.331544 1.0952C0.110515 1.25825 0 1.52507 0 1.89566L0.176823 5.07527C0.2505 5.71268 0.471529 6.26114 0.839912 6.72067ZM1.37038 1.47319L4.4869 2.22918C4.81107 2.3033 5.13525 2.50342 5.45943 2.82953L8.9959 7.09866C9.11378 7.21725 9.15062 7.35066 9.10641 7.49889C9.10641 7.58783 9.0401 7.71383 8.90748 7.87689L5.83518 10.4784C5.73203 10.5673 5.60678 10.6081 5.45943 10.6007C5.31207 10.5933 5.20156 10.5377 5.12788 10.4339L1.59141 6.16479C1.31144 5.80903 1.17146 5.44586 1.17146 5.07527L0.950426 1.80672L1.37038 1.47319ZM2.63025 3.02965C2.63025 3.16306 2.58604 3.27423 2.49763 3.36317C2.40922 3.45211 2.29871 3.49658 2.16609 3.49658C2.03347 3.49658 1.92296 3.45211 1.83454 3.36317C1.74613 3.27423 1.70193 3.16306 1.70193 3.02965C1.70193 2.89624 1.74613 2.78506 1.83454 2.69612C1.92296 2.60718 2.03347 2.56271 2.16609 2.56271C2.29871 2.56271 2.40922 2.60718 2.49763 2.69612C2.58604 2.78506 2.63025 2.89624 2.63025 3.02965ZM2.87338 6.34267L7.20556 7.72124H7.36028C7.56657 7.72124 7.72129 7.61007 7.82444 7.38772C7.86865 7.26913 7.86128 7.15054 7.80234 7.03196C7.7434 6.91337 7.65498 6.83184 7.5371 6.78737L3.20493 5.4088C3.08704 5.3495 2.96548 5.3495 2.84023 5.4088C2.71498 5.46809 2.63025 5.55703 2.58604 5.67562C2.49763 6.01656 2.59341 6.23891 2.87338 6.34267ZM6.40985 8.47723C6.40985 8.66994 6.34354 8.8367 6.21093 8.97752C6.07831 9.11835 5.90885 9.18876 5.70256 9.18876C5.49626 9.18876 5.32681 9.11835 5.19419 8.97752C5.06157 8.8367 4.99526 8.66994 4.99526 8.47723C4.99526 8.28453 5.06526 8.11777 5.20524 7.97695C5.34523 7.83612 5.511 7.76571 5.70256 7.76571C5.89412 7.76571 6.05989 7.83612 6.19987 7.97695C6.33986 8.11777 6.40985 8.28453 6.40985 8.47723ZM4.99526 4.69728C4.99526 4.88998 4.92527 5.05674 4.78529 5.19756C4.6453 5.33839 4.47953 5.4088 4.28797 5.4088C4.09641 5.4088 3.93064 5.33839 3.79065 5.19756C3.65067 5.05674 3.58068 4.88998 3.58068 4.69728C3.58068 4.50457 3.64698 4.33781 3.7796 4.19699C3.91222 4.05616 4.08168 3.98575 4.28797 3.98575C4.49426 3.98575 4.66372 4.05616 4.79634 4.19699C4.92896 4.33781 4.99526 4.50457 4.99526 4.69728Z" fill="#1C1C1C"/>
</svg>
