<svg width="86" height="86" viewBox="0 0 86 86" fill="none" xmlns="http://www.w3.org/2000/svg">
<path d="M43 0C19.2898 0 0 19.2898 0 43C0 53.3845 3.70087 62.9205 9.85273 70.3595C9.8685 70.381 9.86993 70.4082 9.88713 70.4283C14.329 75.7846 19.9076 79.8911 26.1239 82.5442C26.1956 82.5743 26.2658 82.6073 26.3375 82.6374C26.8406 82.8495 27.3494 83.0459 27.8597 83.238C28.0604 83.3139 28.261 83.3913 28.4646 83.4644C28.9046 83.6221 29.3475 83.7712 29.7933 83.9145C30.0785 84.0062 30.3637 84.0965 30.6518 84.1825C31.046 84.3001 31.4416 84.4133 31.8401 84.5208C32.1898 84.6154 32.5424 84.7028 32.895 84.7874C33.2519 84.8734 33.6102 84.9594 33.97 85.0354C34.3713 85.1214 34.777 85.1973 35.184 85.2719C35.5108 85.3321 35.8362 85.3951 36.1659 85.4482C36.6174 85.5213 37.0717 85.5786 37.5275 85.6374C37.8214 85.6746 38.1138 85.7176 38.409 85.7492C38.925 85.8036 39.4453 85.8423 39.9671 85.8782C40.2093 85.8954 40.4501 85.9212 40.6938 85.9341C41.4549 85.9771 42.2246 86 43 86C43.7754 86 44.5451 85.9771 45.3091 85.9369C45.5528 85.924 45.7936 85.8982 46.0358 85.881C46.5575 85.8438 47.0778 85.8065 47.5938 85.752C47.8891 85.7205 48.1815 85.6775 48.4753 85.6402C48.9311 85.5815 49.3855 85.5241 49.837 85.451C50.1652 85.398 50.492 85.3349 50.8188 85.2747C51.2245 85.2002 51.6301 85.1242 52.0329 85.0382C52.3926 84.9608 52.7495 84.8763 53.1079 84.7903C53.4605 84.7043 53.8131 84.6168 54.1628 84.5237C54.5613 84.4176 54.9569 84.3029 55.351 84.1854C55.6391 84.0994 55.9244 84.0091 56.2096 83.9174C56.6554 83.774 57.0983 83.625 57.5383 83.4673C57.7404 83.3942 57.9411 83.3168 58.1432 83.2408C58.6549 83.0488 59.1623 82.851 59.6654 82.6403C59.737 82.6102 59.8073 82.5772 59.8789 82.5471C66.0939 79.894 71.6738 75.7875 76.1157 70.4311C76.1329 70.4111 76.1344 70.3824 76.1501 70.3623C82.2991 62.9205 86 53.3845 86 43C86 19.2898 66.7102 0 43 0ZM60.425 79.1487C60.4035 79.1587 60.3835 79.1702 60.362 79.1802C59.8503 79.4267 59.33 79.6589 58.8054 79.8854C58.6864 79.9356 58.5689 79.9872 58.4499 80.0373C57.9912 80.2294 57.5268 80.4114 57.0596 80.5863C56.8646 80.6594 56.6697 80.7311 56.4733 80.7999C56.0591 80.9475 55.6434 81.0894 55.2235 81.2241C54.9626 81.3073 54.7003 81.3861 54.438 81.4635C54.0653 81.5753 53.6912 81.6828 53.3128 81.7831C52.9946 81.8677 52.6736 81.9451 52.3525 82.0211C52.0157 82.1013 51.6803 82.183 51.3406 82.2547C50.9693 82.3335 50.5952 82.4009 50.2226 82.4683C49.9201 82.5242 49.6191 82.5829 49.3138 82.6317C48.8939 82.6976 48.4696 82.7506 48.0468 82.8037C47.7787 82.8381 47.5121 82.8782 47.2412 82.9069C46.7582 82.9585 46.2709 82.9914 45.785 83.0258C45.5685 83.0402 45.3535 83.0645 45.1342 83.076C44.4247 83.1133 43.7138 83.1333 43 83.1333C42.2862 83.1333 41.5753 83.1133 40.8672 83.076C40.6493 83.0645 40.4343 83.0416 40.2165 83.0258C39.7291 82.9929 39.2432 82.9585 38.7602 82.9069C38.4893 82.8782 38.2227 82.8381 37.9547 82.8037C37.5318 82.7506 37.1076 82.6976 36.6876 82.6317C36.3823 82.5829 36.0813 82.5242 35.7789 82.4683C35.4048 82.4009 35.0307 82.3321 34.6609 82.2547C34.3212 82.183 33.9843 82.1013 33.6489 82.0211C33.3279 81.9437 33.0068 81.8677 32.6886 81.7831C32.3116 81.6828 31.9361 81.5739 31.5634 81.4635C31.3011 81.3861 31.0388 81.3073 30.778 81.2241C30.358 81.0894 29.9409 80.9475 29.5281 80.7999C29.3317 80.7296 29.1368 80.658 28.9419 80.5863C28.4746 80.4114 28.0102 80.2294 27.5515 80.0373C27.4326 79.9886 27.3165 79.937 27.1975 79.8868C26.6729 79.6618 26.1526 79.4282 25.6395 79.1816C25.618 79.1716 25.5979 79.1616 25.5764 79.1501C20.5755 76.7306 16.158 73.2964 12.5732 69.1254C15.3438 58.9229 23.187 50.6984 33.2777 47.4261C33.4769 47.548 33.6848 47.6569 33.8897 47.7716C34.0101 47.8389 34.1291 47.9106 34.2509 47.9751C34.6781 48.2016 35.1109 48.4137 35.5538 48.6043C35.8935 48.7534 36.2447 48.8795 36.5944 49.0085C36.6632 49.0329 36.732 49.0601 36.8008 49.0845C38.7444 49.7725 40.8242 50.1667 43 50.1667C45.1758 50.1667 47.2556 49.7725 49.1977 49.0845C49.2665 49.0601 49.3353 49.0329 49.4041 49.0085C49.7539 48.8795 50.105 48.7534 50.4447 48.6043C50.8876 48.4137 51.3205 48.2016 51.7476 47.9751C51.8695 47.9092 51.9884 47.8389 52.1088 47.7716C52.3138 47.6569 52.5231 47.548 52.7237 47.4247C62.8144 50.6984 70.6562 58.9229 73.4282 69.1239C69.8435 73.2935 65.4259 76.7278 60.425 79.1487ZM27.2333 31.5333C27.2333 22.8402 34.3068 15.7667 43 15.7667C51.6932 15.7667 58.7667 22.8402 58.7667 31.5333C58.7667 37.0631 55.8986 41.9293 51.5771 44.7444C51.0123 45.1113 50.4247 45.4395 49.8212 45.7262C49.7496 45.7606 49.6793 45.7964 49.6077 45.8294C45.4567 47.7171 40.5433 47.7171 36.3923 45.8294C36.3207 45.7964 36.249 45.7606 36.1788 45.7262C35.5739 45.4395 34.9877 45.1113 34.4229 44.7444C30.1014 41.9293 27.2333 37.0631 27.2333 31.5333ZM75.5782 66.3963C72.3289 56.8016 64.9157 49.0472 55.4442 45.3636C59.2325 41.9508 61.6333 37.023 61.6333 31.5333C61.6333 21.2592 53.2741 12.9 43 12.9C32.7259 12.9 24.3667 21.2592 24.3667 31.5333C24.3667 37.023 26.7675 41.9508 30.5572 45.3636C21.0858 49.0487 13.6726 56.8016 10.4232 66.3963C5.67457 59.8044 2.86667 51.7261 2.86667 43C2.86667 20.8708 20.8708 2.86667 43 2.86667C65.1292 2.86667 83.1333 20.8708 83.1333 43C83.1333 51.7261 80.3254 59.8044 75.5782 66.3963Z" fill="#1C1C1C"/>
</svg>
